<?xml version="1.0" encoding="us-ascii" standalone="no"?><svg xmlns="http://www.w3.org/2000/svg" xmlns:xlink="http://www.w3.org/1999/xlink" contentStyleType="text/css" height="802px" preserveAspectRatio="none" style="width:1300px;height:802px;background:#FFFFFF;" version="1.1" viewBox="0 0 1300 802" width="1300px" zoomAndPan="magnify"><defs/><g><!--cluster parcial--><g id="cluster_parcial"><path d="M8.5,6 L61.5,6 A3.75,3.75 0 0 1 64,8.5 L71,28.2969 L1290.5,28.2969 A2.5,2.5 0 0 1 1293,30.7969 L1293,792.81 A2.5,2.5 0 0 1 1290.5,795.31 L8.5,795.31 A2.5,2.5 0 0 1 6,792.81 L6,8.5 A2.5,2.5 0 0 1 8.5,6 " fill="none" style="stroke:#000000;stroke-width:1.5;"/><line style="stroke:#000000;stroke-width:1.5;" x1="6" x2="71" y1="28.2969" y2="28.2969"/><text fill="#000000" font-family="sans-serif" font-size="14" font-weight="bold" lengthAdjust="spacing" textLength="52" x="10" y="20.9951">parcial</text></g><!--class Author--><g id="elem_Author"><rect codeLine="2" fill="#F1F1F1" height="145.7813" id="Author" rx="2.5" ry="2.5" style="stroke:#181818;stroke-width:0.5;" width="226" x="1051" y="592.79"/><ellipse cx="1136.75" cy="608.79" fill="#ADD1B2" rx="11" ry="11" style="stroke:#181818;stroke-width:1.0;"/><path d="M1139.7188,614.4306 Q1139.1406,614.7275 1138.5,614.8681 Q1137.8594,615.0244 1137.1563,615.0244 Q1134.6563,615.0244 1133.3281,613.3838 Q1132.0156,611.7275 1132.0156,608.6025 Q1132.0156,605.4775 1133.3281,603.8213 Q1134.6563,602.165 1137.1563,602.165 Q1137.8594,602.165 1138.5,602.3213 Q1139.1563,602.4775 1139.7188,602.7744 L1139.7188,605.4931 Q1139.0938,604.915 1138.5,604.6494 Q1137.9063,604.3681 1137.2813,604.3681 Q1135.9375,604.3681 1135.25,605.4463 Q1134.5625,606.5088 1134.5625,608.6025 Q1134.5625,610.6963 1135.25,611.7744 Q1135.9375,612.8369 1137.2813,612.8369 Q1137.9063,612.8369 1138.5,612.5713 Q1139.0938,612.29 1139.7188,611.7119 L1139.7188,614.4306 Z " fill="#000000"/><text fill="#000000" font-family="sans-serif" font-size="14" lengthAdjust="spacing" textLength="46" x="1157.25" y="613.6367">Author</text><line style="stroke:#181818;stroke-width:0.5;" x1="1052" x2="1276" y1="624.79" y2="624.79"/><rect fill="none" height="6" style="stroke:#C82930;stroke-width:1.0;" width="6" x="1059" y="635.4384"/><text fill="#000000" font-family="sans-serif" font-size="14" lengthAdjust="spacing" textLength="38" x="1071" y="641.7851">id: int</text><rect fill="none" height="6" style="stroke:#C82930;stroke-width:1.0;" width="6" x="1059" y="651.7353"/><text fill="#000000" font-family="sans-serif" font-size="14" lengthAdjust="spacing" textLength="108" x="1071" y="658.082">fullName: String</text><line style="stroke:#181818;stroke-width:0.5;" x1="1052" x2="1276" y1="665.3838" y2="665.3838"/><ellipse cx="1062" cy="679.0322" fill="#84BE84" rx="3" ry="3" style="stroke:#038048;stroke-width:1.0;"/><text fill="#000000" font-family="sans-serif" font-size="14" lengthAdjust="spacing" textLength="200" x="1071" y="682.3789">Author(int id, String fullName)</text><ellipse cx="1062" cy="695.3291" fill="#84BE84" rx="3" ry="3" style="stroke:#038048;stroke-width:1.0;"/><text fill="#000000" font-family="sans-serif" font-size="14" lengthAdjust="spacing" textLength="145" x="1071" y="698.6757">getFullName(): String</text><ellipse cx="1062" cy="711.6259" fill="#84BE84" rx="3" ry="3" style="stroke:#038048;stroke-width:1.0;"/><text fill="#000000" font-family="sans-serif" font-size="14" lengthAdjust="spacing" textLength="71" x="1071" y="714.9726">getId(): int</text><ellipse cx="1062" cy="727.9228" fill="#84BE84" rx="3" ry="3" style="stroke:#038048;stroke-width:1.0;"/><text fill="#000000" font-family="sans-serif" font-size="14" lengthAdjust="spacing" textLength="113" x="1071" y="731.2695">toString(): String</text></g><!--class DocumentType--><g id="elem_DocumentType"><rect codeLine="12" fill="#F1F1F1" height="113.1875" id="DocumentType" rx="2.5" ry="2.5" style="stroke:#181818;stroke-width:0.5;" width="139" x="402.5" y="264.08"/><ellipse cx="417.5" cy="280.08" fill="#EB937F" rx="11" ry="11" style="stroke:#181818;stroke-width:1.0;"/><path d="M421.6094,286.08 L413.8906,286.08 L413.8906,273.6894 L421.6094,273.6894 L421.6094,275.8456 L416.3438,275.8456 L416.3438,278.5175 L421.1094,278.5175 L421.1094,280.6737 L416.3438,280.6737 L416.3438,283.9237 L421.6094,283.9237 L421.6094,286.08 Z " fill="#000000"/><text fill="#000000" font-family="sans-serif" font-size="14" lengthAdjust="spacing" textLength="107" x="431.5" y="284.9267">DocumentType</text><line style="stroke:#181818;stroke-width:0.5;" x1="403.5" x2="540.5" y1="296.08" y2="296.08"/><text fill="#000000" font-family="sans-serif" font-size="14" lengthAdjust="spacing" textLength="41" x="408.5" y="313.0751">BOOK</text><text fill="#000000" font-family="sans-serif" font-size="14" lengthAdjust="spacing" textLength="73" x="408.5" y="329.372">MAGAZINE</text><text fill="#000000" font-family="sans-serif" font-size="14" lengthAdjust="spacing" textLength="57" x="408.5" y="345.6689">ARTICLE</text><text fill="#000000" font-family="sans-serif" font-size="14" lengthAdjust="spacing" textLength="46" x="408.5" y="361.9657">PAPER</text><line style="stroke:#181818;stroke-width:0.5;" x1="403.5" x2="540.5" y1="369.2675" y2="369.2675"/></g><!--class Document--><g id="elem_Document"><rect codeLine="19" fill="#F1F1F1" height="227.2656" id="Document" rx="2.5" ry="2.5" style="stroke:#181818;stroke-width:0.5;" width="503" x="21.5" y="552.04"/><ellipse cx="232.25" cy="568.04" fill="#ADD1B2" rx="11" ry="11" style="stroke:#181818;stroke-width:1.0;"/><path d="M235.2188,573.6806 Q234.6406,573.9775 234,574.1181 Q233.3594,574.2744 232.6563,574.2744 Q230.1563,574.2744 228.8281,572.6338 Q227.5156,570.9775 227.5156,567.8525 Q227.5156,564.7275 228.8281,563.0713 Q230.1563,561.415 232.6563,561.415 Q233.3594,561.415 234,561.5713 Q234.6563,561.7275 235.2188,562.0244 L235.2188,564.7431 Q234.5938,564.165 234,563.8994 Q233.4063,563.6181 232.7813,563.6181 Q231.4375,563.6181 230.75,564.6963 Q230.0625,565.7588 230.0625,567.8525 Q230.0625,569.9463 230.75,571.0244 Q231.4375,572.0869 232.7813,572.0869 Q233.4063,572.0869 234,571.8213 Q234.5938,571.54 235.2188,570.9619 L235.2188,573.6806 Z " fill="#000000"/><text fill="#000000" font-family="sans-serif" font-size="14" lengthAdjust="spacing" textLength="73" x="252.75" y="572.8867">Document</text><line style="stroke:#181818;stroke-width:0.5;" x1="22.5" x2="523.5" y1="584.04" y2="584.04"/><rect fill="none" height="6" style="stroke:#C82930;stroke-width:1.0;" width="6" x="29.5" y="594.6884"/><text fill="#000000" font-family="sans-serif" font-size="14" lengthAdjust="spacing" textLength="38" x="41.5" y="601.0351">id: int</text><rect fill="none" height="6" style="stroke:#C82930;stroke-width:1.0;" width="6" x="29.5" y="610.9853"/><text fill="#000000" font-family="sans-serif" font-size="14" lengthAdjust="spacing" textLength="74" x="41.5" y="617.332">title: String</text><rect fill="none" height="6" style="stroke:#C82930;stroke-width:1.0;" width="6" x="29.5" y="627.2822"/><text fill="#000000" font-family="sans-serif" font-size="14" lengthAdjust="spacing" textLength="132" x="41.5" y="633.6289">publicationYear: int</text><rect fill="none" height="6" style="stroke:#C82930;stroke-width:1.0;" width="6" x="29.5" y="643.5791"/><text fill="#000000" font-family="sans-serif" font-size="14" lengthAdjust="spacing" textLength="146" x="41.5" y="649.9257">type: DocumentType</text><rect fill="none" height="6" style="stroke:#C82930;stroke-width:1.0;" width="6" x="29.5" y="659.8759"/><text fill="#000000" font-family="sans-serif" font-size="14" lengthAdjust="spacing" textLength="162" x="41.5" y="666.2226">keywords: List&lt;String&gt;</text><line style="stroke:#181818;stroke-width:0.5;" x1="22.5" x2="523.5" y1="673.5244" y2="673.5244"/><ellipse cx="32.5" cy="687.1728" fill="#84BE84" rx="3" ry="3" style="stroke:#038048;stroke-width:1.0;"/><text fill="#000000" font-family="sans-serif" font-size="14" lengthAdjust="spacing" textLength="477" x="41.5" y="690.5195">Document(int id, String title, int publicationYear, DocumentType type)</text><ellipse cx="32.5" cy="703.4697" fill="#84BE84" rx="3" ry="3" style="stroke:#038048;stroke-width:1.0;"/><text fill="#000000" font-family="sans-serif" font-size="14" lengthAdjust="spacing" textLength="71" x="41.5" y="706.8164">getId(): int</text><ellipse cx="32.5" cy="719.7666" fill="#84BE84" rx="3" ry="3" style="stroke:#038048;stroke-width:1.0;"/><text fill="#000000" font-family="sans-serif" font-size="14" lengthAdjust="spacing" textLength="196" x="41.5" y="723.1132">getKeywords(): List&lt;String&gt;</text><ellipse cx="32.5" cy="736.0634" fill="#84BE84" rx="3" ry="3" style="stroke:#038048;stroke-width:1.0;"/><text fill="#000000" font-family="sans-serif" font-size="14" lengthAdjust="spacing" textLength="234" x="41.5" y="739.4101">addKeyword(String keyword): void</text><ellipse cx="32.5" cy="752.3603" fill="#84BE84" rx="3" ry="3" style="stroke:#038048;stroke-width:1.0;"/><text fill="#000000" font-family="sans-serif" font-size="14" lengthAdjust="spacing" textLength="260" x="41.5" y="755.707">removeKeyword(String keyword): void</text><ellipse cx="32.5" cy="768.6572" fill="#84BE84" rx="3" ry="3" style="stroke:#038048;stroke-width:1.0;"/><text fill="#000000" font-family="sans-serif" font-size="14" lengthAdjust="spacing" textLength="113" x="41.5" y="772.0039">toString(): String</text></g><!--class DocumentAuthor--><g id="elem_DocumentAuthor"><rect codeLine="34" fill="#F1F1F1" height="162.0781" id="DocumentAuthor" rx="2.5" ry="2.5" style="stroke:#181818;stroke-width:0.5;" width="345" x="615.5" y="584.64"/><ellipse cx="724.25" cy="600.64" fill="#ADD1B2" rx="11" ry="11" style="stroke:#181818;stroke-width:1.0;"/><path d="M727.2188,606.2806 Q726.6406,606.5775 726,606.7181 Q725.3594,606.8744 724.6563,606.8744 Q722.1563,606.8744 720.8281,605.2338 Q719.5156,603.5775 719.5156,600.4525 Q719.5156,597.3275 720.8281,595.6713 Q722.1563,594.015 724.6563,594.015 Q725.3594,594.015 726,594.1713 Q726.6563,594.3275 727.2188,594.6244 L727.2188,597.3431 Q726.5938,596.765 726,596.4994 Q725.4063,596.2181 724.7813,596.2181 Q723.4375,596.2181 722.75,597.2963 Q722.0625,598.3588 722.0625,600.4525 Q722.0625,602.5463 722.75,603.6244 Q723.4375,604.6869 724.7813,604.6869 Q725.4063,604.6869 726,604.4213 Q726.5938,604.14 727.2188,603.5619 L727.2188,606.2806 Z " fill="#000000"/><text fill="#000000" font-family="sans-serif" font-size="14" lengthAdjust="spacing" textLength="119" x="744.75" y="605.4867">DocumentAuthor</text><line style="stroke:#181818;stroke-width:0.5;" x1="616.5" x2="959.5" y1="616.64" y2="616.64"/><rect fill="none" height="6" style="stroke:#C82930;stroke-width:1.0;" width="6" x="623.5" y="627.2884"/><text fill="#000000" font-family="sans-serif" font-size="14" lengthAdjust="spacing" textLength="109" x="635.5" y="633.6351">documentId: int</text><rect fill="none" height="6" style="stroke:#C82930;stroke-width:1.0;" width="6" x="623.5" y="643.5853"/><text fill="#000000" font-family="sans-serif" font-size="14" lengthAdjust="spacing" textLength="83" x="635.5" y="649.932">authorId: int</text><line style="stroke:#181818;stroke-width:0.5;" x1="616.5" x2="959.5" y1="657.2338" y2="657.2338"/><ellipse cx="626.5" cy="670.8822" fill="#84BE84" rx="3" ry="3" style="stroke:#038048;stroke-width:1.0;"/><text fill="#000000" font-family="sans-serif" font-size="14" lengthAdjust="spacing" textLength="319" x="635.5" y="674.2289">DocumentAuthor(int documentId, int authorId)</text><ellipse cx="626.5" cy="687.1791" fill="#84BE84" rx="3" ry="3" style="stroke:#038048;stroke-width:1.0;"/><text fill="#000000" font-family="sans-serif" font-size="14" lengthAdjust="spacing" textLength="144" x="635.5" y="690.5257">getDocumentId(): int</text><ellipse cx="626.5" cy="703.4759" fill="#84BE84" rx="3" ry="3" style="stroke:#038048;stroke-width:1.0;"/><text fill="#000000" font-family="sans-serif" font-size="14" lengthAdjust="spacing" textLength="258" x="635.5" y="706.8226">setDocumentId(int documentId): void</text><ellipse cx="626.5" cy="719.7728" fill="#84BE84" rx="3" ry="3" style="stroke:#038048;stroke-width:1.0;"/><text fill="#000000" font-family="sans-serif" font-size="14" lengthAdjust="spacing" textLength="117" x="635.5" y="723.1195">getAuthorId(): int</text><ellipse cx="626.5" cy="736.0697" fill="#84BE84" rx="3" ry="3" style="stroke:#038048;stroke-width:1.0;"/><text fill="#000000" font-family="sans-serif" font-size="14" lengthAdjust="spacing" textLength="113" x="635.5" y="739.4164">toString(): String</text></g><!--class LibraryManager--><g id="elem_LibraryManager"><rect codeLine="45" fill="#F1F1F1" height="308.75" id="LibraryManager" rx="2.5" ry="2.5" style="stroke:#181818;stroke-width:0.5;" width="422" x="577" y="166.29"/><ellipse cx="731.75" cy="182.29" fill="#ADD1B2" rx="11" ry="11" style="stroke:#181818;stroke-width:1.0;"/><path d="M734.7188,187.9306 Q734.1406,188.2275 733.5,188.3681 Q732.8594,188.5244 732.1563,188.5244 Q729.6563,188.5244 728.3281,186.8837 Q727.0156,185.2275 727.0156,182.1025 Q727.0156,178.9775 728.3281,177.3212 Q729.6563,175.665 732.1563,175.665 Q732.8594,175.665 733.5,175.8212 Q734.1563,175.9775 734.7188,176.2744 L734.7188,178.9931 Q734.0938,178.415 733.5,178.1494 Q732.9063,177.8681 732.2813,177.8681 Q730.9375,177.8681 730.25,178.9462 Q729.5625,180.0087 729.5625,182.1025 Q729.5625,184.1962 730.25,185.2744 Q730.9375,186.3369 732.2813,186.3369 Q732.9063,186.3369 733.5,186.0712 Q734.0938,185.79 734.7188,185.2119 L734.7188,187.9306 Z " fill="#000000"/><text fill="#000000" font-family="sans-serif" font-size="14" lengthAdjust="spacing" textLength="104" x="752.25" y="187.1367">LibraryManager</text><line style="stroke:#181818;stroke-width:0.5;" x1="578" x2="998" y1="198.29" y2="198.29"/><rect fill="none" height="6" style="stroke:#C82930;stroke-width:1.0;" width="6" x="585" y="208.9384"/><text fill="#000000" font-family="sans-serif" font-size="14" lengthAdjust="spacing" textLength="208" x="597" y="215.2851">documents: List&lt;Document&gt;</text><rect fill="none" height="6" style="stroke:#C82930;stroke-width:1.0;" width="6" x="585" y="225.2353"/><text fill="#000000" font-family="sans-serif" font-size="14" lengthAdjust="spacing" textLength="155" x="597" y="231.582">authors: List&lt;Author&gt;</text><rect fill="none" height="6" style="stroke:#C82930;stroke-width:1.0;" width="6" x="585" y="241.5322"/><text fill="#000000" font-family="sans-serif" font-size="14" lengthAdjust="spacing" textLength="301" x="597" y="247.8789">authorDocuments: List&lt;DocumentAuthor&gt;</text><rect fill="none" height="6" style="stroke:#C82930;stroke-width:1.0;" width="6" x="585" y="257.8291"/><text fill="#000000" font-family="sans-serif" font-size="14" lengthAdjust="spacing" textLength="122" x="597" y="264.1757">scanner: Scanner</text><line style="stroke:#181818;stroke-width:0.5;" x1="578" x2="998" y1="271.4775" y2="271.4775"/><ellipse cx="588" cy="285.1259" fill="#84BE84" rx="3" ry="3" style="stroke:#038048;stroke-width:1.0;"/><text fill="#000000" font-family="sans-serif" font-size="14" lengthAdjust="spacing" textLength="114" x="597" y="288.4726">LibraryManager()</text><ellipse cx="588" cy="301.4228" fill="#84BE84" rx="3" ry="3" style="stroke:#038048;stroke-width:1.0;"/><text fill="#000000" font-family="sans-serif" font-size="14" lengthAdjust="spacing" textLength="133" x="597" y="304.7695">displayMenu(): void</text><rect fill="#F24D5C" height="6" style="stroke:#C82930;stroke-width:1.0;" width="6" x="585" y="314.7197"/><text fill="#000000" font-family="sans-serif" font-size="14" lengthAdjust="spacing" textLength="146" x="597" y="321.0664">addDocument(): void</text><rect fill="#F24D5C" height="6" style="stroke:#C82930;stroke-width:1.0;" width="6" x="585" y="331.0166"/><text fill="#000000" font-family="sans-serif" font-size="14" lengthAdjust="spacing" textLength="119" x="597" y="337.3632">addAuthor(): void</text><rect fill="#F24D5C" height="6" style="stroke:#C82930;stroke-width:1.0;" width="6" x="585" y="347.3134"/><text fill="#000000" font-family="sans-serif" font-size="14" lengthAdjust="spacing" textLength="262" x="597" y="353.6601">associateAuthorWithDocument(): void</text><rect fill="#F24D5C" height="6" style="stroke:#C82930;stroke-width:1.0;" width="6" x="585" y="363.6103"/><text fill="#000000" font-family="sans-serif" font-size="14" lengthAdjust="spacing" textLength="196" x="597" y="369.957">searchDocumentById(): void</text><rect fill="#F24D5C" height="6" style="stroke:#C82930;stroke-width:1.0;" width="6" x="585" y="379.9072"/><text fill="#000000" font-family="sans-serif" font-size="14" lengthAdjust="spacing" textLength="169" x="597" y="386.2539">searchAuthorById(): void</text><rect fill="#F24D5C" height="6" style="stroke:#C82930;stroke-width:1.0;" width="6" x="585" y="396.2041"/><text fill="#000000" font-family="sans-serif" font-size="14" lengthAdjust="spacing" textLength="395" x="597" y="402.5507">getAuthorsByDocumentId(int documentId): List&lt;Author&gt;</text><rect fill="#F24D5C" height="6" style="stroke:#C82930;stroke-width:1.0;" width="6" x="585" y="412.5009"/><text fill="#000000" font-family="sans-serif" font-size="14" lengthAdjust="spacing" textLength="396" x="597" y="418.8476">getDocumentsByAuthorId(int authorId): List&lt;Document&gt;</text><rect fill="#F24D5C" height="6" style="stroke:#C82930;stroke-width:1.0;" width="6" x="585" y="428.7978"/><text fill="#000000" font-family="sans-serif" font-size="14" lengthAdjust="spacing" textLength="250" x="597" y="435.1445">getDocumentById(int id): Document</text><rect fill="#F24D5C" height="6" style="stroke:#C82930;stroke-width:1.0;" width="6" x="585" y="445.0947"/><text fill="#000000" font-family="sans-serif" font-size="14" lengthAdjust="spacing" textLength="196" x="597" y="451.4414">getAuthorById(int id): Author</text><rect fill="#F24D5C" height="6" style="stroke:#C82930;stroke-width:1.0;" width="6" x="585" y="461.3916"/><text fill="#000000" font-family="sans-serif" font-size="14" lengthAdjust="spacing" textLength="162" x="597" y="467.7382">listAllDocuments(): void</text></g><!--class App--><g id="elem_App"><rect codeLine="65" fill="#F1F1F1" height="64.2969" id="App" rx="2.5" ry="2.5" style="stroke:#181818;stroke-width:0.5;" width="190" x="693" y="41"/><ellipse cx="770.25" cy="57" fill="#ADD1B2" rx="11" ry="11" style="stroke:#181818;stroke-width:1.0;"/><path d="M773.2188,62.6406 Q772.6406,62.9375 772,63.0781 Q771.3594,63.2344 770.6563,63.2344 Q768.1563,63.2344 766.8281,61.5938 Q765.5156,59.9375 765.5156,56.8125 Q765.5156,53.6875 766.8281,52.0313 Q768.1563,50.375 770.6563,50.375 Q771.3594,50.375 772,50.5313 Q772.6563,50.6875 773.2188,50.9844 L773.2188,53.7031 Q772.5938,53.125 772,52.8594 Q771.4063,52.5781 770.7813,52.5781 Q769.4375,52.5781 768.75,53.6563 Q768.0625,54.7188 768.0625,56.8125 Q768.0625,58.9063 768.75,59.9844 Q769.4375,61.0469 770.7813,61.0469 Q771.4063,61.0469 772,60.7813 Q772.5938,60.5 773.2188,59.9219 L773.2188,62.6406 Z " fill="#000000"/><text fill="#000000" font-family="sans-serif" font-size="14" lengthAdjust="spacing" textLength="27" x="790.75" y="61.8467">App</text><line style="stroke:#181818;stroke-width:0.5;" x1="694" x2="882" y1="73" y2="73"/><line style="stroke:#181818;stroke-width:0.5;" x1="694" x2="882" y1="81" y2="81"/><ellipse cx="704" cy="94.6484" fill="#84BE84" rx="3" ry="3" style="stroke:#038048;stroke-width:1.0;"/><text fill="#000000" font-family="sans-serif" font-size="14" lengthAdjust="spacing" textLength="164" x="713" y="97.9951">main(String[] args): void</text></g><!--link LibraryManager to Document--><g id="link_LibraryManager_Document"><path codeLine="70" d="M576.54,463.35 C570.63,467.29 564.77,471.2 559,475.04 C521.69,499.91 481.61,526.54 443.6,551.75 " fill="none" id="LibraryManager-Document" style="stroke:#181818;stroke-width:1.0;"/><text fill="#000000" font-family="sans-serif" font-size="13" lengthAdjust="spacing" textLength="60" x="513" y="518.1069">manages</text><text fill="#000000" font-family="sans-serif" font-size="13" lengthAdjust="spacing" textLength="23" x="430.7923" y="541.0425">0..*</text></g><!--link LibraryManager to Author--><g id="link_LibraryManager_Author"><path codeLine="71" d="M956.48,475.36 C1001.22,516.18 1047.45,558.36 1084.89,592.51 " fill="none" id="LibraryManager-Author" style="stroke:#181818;stroke-width:1.0;"/><text fill="#000000" font-family="sans-serif" font-size="13" lengthAdjust="spacing" textLength="60" x="999" y="518.1069">manages</text><text fill="#000000" font-family="sans-serif" font-size="13" lengthAdjust="spacing" textLength="23" x="1052.9706" y="581.6424">0..*</text></g><!--link LibraryManager to DocumentAuthor--><g id="link_LibraryManager_DocumentAuthor"><path codeLine="72" d="M788,475.36 C788,512.97 788,551.74 788,584.31 " fill="none" id="LibraryManager-DocumentAuthor" style="stroke:#181818;stroke-width:1.0;"/><text fill="#000000" font-family="sans-serif" font-size="13" lengthAdjust="spacing" textLength="60" x="789" y="518.1069">manages</text><text fill="#000000" font-family="sans-serif" font-size="13" lengthAdjust="spacing" textLength="23" x="763.9758" y="573.4679">0..*</text></g><!--link DocumentAuthor to Author--><g id="link_DocumentAuthor_Author"><path codeLine="73" d="M960.87,665.68 C991.35,665.68 1022.36,665.68 1050.67,665.68 " fill="none" id="DocumentAuthor-Author" style="stroke:#181818;stroke-width:1.0;"/><text fill="#000000" font-family="sans-serif" font-size="13" lengthAdjust="spacing" textLength="54" x="978.75" y="658.7469">contains</text><text fill="#000000" font-family="sans-serif" font-size="13" lengthAdjust="spacing" textLength="23" x="968.6481" y="678.0661">0..*</text><text fill="#000000" font-family="sans-serif" font-size="13" lengthAdjust="spacing" textLength="8" x="1035.1535" y="662.2706">1</text></g><!--link Document to DocumentAuthor--><g id="link_Document_DocumentAuthor"><path codeLine="74" d="M524.84,665.68 C555.45,665.68 586.17,665.68 615.26,665.68 " fill="none" id="Document-DocumentAuthor" style="stroke:#181818;stroke-width:1.0;"/><text fill="#000000" font-family="sans-serif" font-size="13" lengthAdjust="spacing" textLength="54" x="543" y="658.7469">contains</text><text fill="#000000" font-family="sans-serif" font-size="13" lengthAdjust="spacing" textLength="8" x="532.4353" y="662.5264">1</text><text fill="#000000" font-family="sans-serif" font-size="13" lengthAdjust="spacing" textLength="23" x="584.4874" y="678.0661">0..*</text></g><!--link DocumentType to LibraryManager--><g id="link_DocumentType_LibraryManager"><path codeLine="75" d="M541.74,320.67 C553.45,320.67 565.15,320.67 576.85,320.67 " fill="none" id="DocumentType-LibraryManager" style="stroke:#181818;stroke-width:1.0;"/></g><!--link App to LibraryManager--><g id="link_App_LibraryManager"><path codeLine="76" d="M788,105.74 C788,122.06 788,143.3 788,166.06 " fill="none" id="App-LibraryManager" style="stroke:#181818;stroke-width:1.0;"/></g><!--SRC=[bLHTRziW57tFhq1-SfQusbwjgPApT5FKfAtQIjCsxO7QB4N5O07kP4txxmE3CVWZwVoKt7lEvN3kvLOmVu571A8AyXn34e4_2w2-d40XG5RBPyPjI7y9m4KAC9LUv5TDo0qiKGeU9CVqk72vbIqGAu8YhYt0CPOUyeZaPnkEbwvKaDyLEkCVlWAI6UI0yzU8GBGkmPRbTOceV6mgv5rbStjxxVuSiY_PzztDbGjazu-xJ_l-_rrsTtNlbpO6TRNFM2In96XqgGHKzHF1EPIOqMy8yX5DAKu3_Lxo1JM_6Iz42lPOo8-czgLlVaSSsj-gMUkpXWBMeLdw_ENv7gZmjHMZau6S7WMBmg9YgyFUG55U6IuyA4SbUqLlHPyUWR1F4mDTsDHkr3NOWhluXB7UTFTLZB4TTs3Vri76DeeW7HOTtreLo-mP__igZ2Lx_CGXRmwGglS_RKatMvsiov4v7S986UUtCvN6U953If5w0W_cX-ztA3NsFIsmg0Xi3kgbnqEJ4ZrpxX5CPcq79t92CBKF9JA8hrW-dwWarDl97M3Jc9vCWaoz6OXhgjWqfsPXndDlm5G1Dnx1F9vegKTlzPcriUmtq9JI46bY7ewemp92dApWqi4yPbNb3U4Ab11J-_P__0IG7qL8LUJ122S9YDvVNBoB-hMSgZ8wAUQnTYMy0JbO8Zt31g8F4KZ8F3ndLAfBYOMJrp9unpXFQBUo9eGQ5zgxP1Zz1m00]--></g></svg>